<mxfile host="Electron" agent="Mozilla/5.0 (X11; Linux x86_64) AppleWebKit/537.36 (KHTML, like Gecko) draw.io/27.0.9 Chrome/134.0.6998.205 Electron/35.7.1 Safari/537.36" version="27.0.9">
  <diagram name="Page-1" id="3S_AirhRVsnqVReT5-ey">
    <mxGraphModel dx="1426" dy="848" grid="1" gridSize="10" guides="1" tooltips="1" connect="1" arrows="1" fold="1" page="1" pageScale="1" pageWidth="850" pageHeight="1100" math="0" shadow="0">
      <root>
        <mxCell id="0" />
        <mxCell id="1" parent="0" />
        <mxCell id="Rblh4r3qN3-5NLPivXeo-5" style="edgeStyle=orthogonalEdgeStyle;rounded=0;orthogonalLoop=1;jettySize=auto;html=1;" edge="1" parent="1" source="Rblh4r3qN3-5NLPivXeo-1" target="Rblh4r3qN3-5NLPivXeo-4">
          <mxGeometry relative="1" as="geometry" />
        </mxCell>
        <mxCell id="Rblh4r3qN3-5NLPivXeo-1" value="Splash Screen" style="rounded=1;whiteSpace=wrap;html=1;" vertex="1" parent="1">
          <mxGeometry x="365" y="400" width="120" height="60" as="geometry" />
        </mxCell>
        <mxCell id="Rblh4r3qN3-5NLPivXeo-3" style="edgeStyle=orthogonalEdgeStyle;rounded=0;orthogonalLoop=1;jettySize=auto;html=1;entryX=0.5;entryY=0;entryDx=0;entryDy=0;" edge="1" parent="1" source="Rblh4r3qN3-5NLPivXeo-2" target="Rblh4r3qN3-5NLPivXeo-1">
          <mxGeometry relative="1" as="geometry" />
        </mxCell>
        <mxCell id="Rblh4r3qN3-5NLPivXeo-2" value="Start" style="strokeWidth=2;html=1;shape=mxgraph.flowchart.start_2;whiteSpace=wrap;" vertex="1" parent="1">
          <mxGeometry x="375" y="260" width="100" height="100" as="geometry" />
        </mxCell>
        <mxCell id="Rblh4r3qN3-5NLPivXeo-7" style="edgeStyle=orthogonalEdgeStyle;rounded=0;orthogonalLoop=1;jettySize=auto;html=1;" edge="1" parent="1" source="Rblh4r3qN3-5NLPivXeo-4" target="Rblh4r3qN3-5NLPivXeo-6">
          <mxGeometry relative="1" as="geometry" />
        </mxCell>
        <mxCell id="Rblh4r3qN3-5NLPivXeo-4" value="User Login /Account Creation" style="rounded=1;whiteSpace=wrap;html=1;" vertex="1" parent="1">
          <mxGeometry x="365" y="520" width="120" height="60" as="geometry" />
        </mxCell>
        <mxCell id="Rblh4r3qN3-5NLPivXeo-6" value="Main Menu" style="rounded=1;whiteSpace=wrap;html=1;" vertex="1" parent="1">
          <mxGeometry x="365" y="640" width="120" height="60" as="geometry" />
        </mxCell>
      </root>
    </mxGraphModel>
  </diagram>
</mxfile>
